<svg version="1.1" id="Layer_1" xmlns="http://www.w3.org/2000/svg" xmlns:xlink="http://www.w3.org/1999/xlink" x="0px" y="0px"
	 width="100%" viewBox="0 0 1024 1024" enable-background="new 0 0 1024 1024" xml:space="preserve">
<path fill="#ffffff" opacity="1.000000" stroke="none" 
	d="
M418.992310,707.262573 
	C413.163116,707.215637 407.832275,707.163513 402.501343,707.121460 
	C398.931396,707.093262 395.573212,706.094421 392.366058,704.673157 
	C383.446625,700.720459 379.909302,693.176514 382.542908,683.856079 
	C385.247864,674.283264 391.104919,667.837708 400.995026,665.439697 
	C402.254730,665.134216 403.491425,664.733948 404.822754,664.353577 
	C404.508545,661.669373 402.708557,660.013550 401.582611,658.051086 
	C387.814423,634.054016 397.341461,606.882935 423.196686,597.010803 
	C426.739014,595.658203 428.746460,593.800415 429.118652,589.969299 
	C430.228088,578.548462 431.205872,567.104187 432.756744,555.740234 
	C434.184875,545.275635 437.566956,535.331360 442.919159,526.163086 
	C444.419525,523.592896 445.290100,521.061951 444.544434,518.103882 
	C443.832458,515.279419 445.034790,512.891296 446.343109,510.531555 
	C448.205719,507.172150 448.329651,503.658630 446.085266,500.596954 
	C441.239380,493.986481 437.169678,486.986298 434.171265,478.323181 
	C432.243500,481.099976 430.833588,483.242096 429.310150,485.300140 
	C426.827820,488.653534 424.158875,491.858673 420.919556,494.518646 
	C416.899353,497.819794 415.423126,497.430542 414.221863,492.341370 
	C411.233246,479.680267 404.801636,469.972961 392.804962,463.852570 
	C383.254639,458.980225 375.450165,451.948425 372.839050,440.517426 
	C369.858063,442.136597 370.906342,446.007629 368.179138,447.363525 
	C365.880981,447.171570 365.986298,445.300629 365.669769,443.717194 
	C362.709686,428.910400 365.191467,415.076263 374.115814,402.884888 
	C388.117798,383.757111 405.779816,368.252747 424.673706,354.194305 
	C432.339569,348.490295 441.519287,346.363434 451.137878,346.816467 
	C453.927979,346.947876 456.315186,346.231415 458.659058,344.723999 
	C472.286987,335.959442 483.967621,325.229095 492.689484,311.457184 
	C493.574341,310.059967 494.328278,308.319489 496.374908,308.598633 
	C498.635864,308.906952 499.003448,310.802765 499.354248,312.668732 
	C499.630341,314.137207 500.051697,315.579651 500.446106,317.023438 
	C500.527710,317.322113 500.774933,317.575562 501.005615,317.945740 
	C503.059845,318.134796 504.158203,316.374878 505.609070,315.437897 
	C509.979004,312.615814 514.529419,310.229279 519.588745,308.937439 
	C520.880432,308.607666 522.312744,308.456207 523.287537,309.681946 
	C524.325439,310.987030 523.560791,312.242279 522.840881,313.355011 
	C520.658325,316.728577 518.767700,320.246033 517.571045,324.087952 
	C516.733582,326.776703 517.323120,328.452240 520.601074,328.903595 
	C536.660522,331.114838 551.547791,336.670288 565.356079,345.123688 
	C568.234192,346.885651 571.340454,346.889526 574.529175,346.823242 
	C582.916077,346.648834 590.817505,348.570953 597.688721,353.417145 
	C616.962463,367.010712 634.743225,382.333252 649.510315,400.814423 
	C659.832703,413.732941 662.157654,428.738739 659.254211,444.750366 
	C659.042114,445.919952 658.763672,447.038239 657.317017,447.524536 
	C654.272339,446.640320 655.148315,442.919708 652.995483,441.269958 
	C651.424072,441.180511 651.215027,442.611481 650.878845,443.575897 
	C647.845642,452.278870 641.628601,458.197845 633.792725,462.358337 
	C621.232971,469.027100 613.188416,478.851196 610.392944,492.952576 
	C609.406433,497.928558 608.032227,498.188721 604.273865,494.720123 
	C599.355835,490.181305 595.502258,484.757263 591.868774,479.214203 
	C589.759644,479.610931 589.711182,481.363403 589.191650,482.608826 
	C586.937256,488.012817 584.436218,493.240692 580.481384,497.670593 
	C579.022339,499.304962 577.611816,501.400452 578.099365,503.536499 
	C579.878723,511.332367 578.893433,519.781616 582.661133,527.027893 
	C590.117493,541.368530 593.408569,556.620728 594.267700,572.607910 
	C594.632874,579.402283 595.651794,586.160583 596.334351,592.939209 
	C596.627686,595.852112 599.149414,595.968140 601.060791,596.655518 
	C616.713928,602.284851 626.133118,613.159119 628.810730,629.632080 
	C630.447937,639.704468 628.395569,649.156921 623.430176,658.020386 
	C622.393860,659.870422 621.395081,661.741516 620.515015,663.353638 
	C621.514954,665.211304 623.000671,665.187805 624.224365,665.493347 
	C635.218628,668.238525 640.817322,676.078613 643.562805,686.332031 
	C645.509521,693.602295 639.947327,702.380615 632.007202,705.038208 
	C626.748230,706.798340 621.265015,707.290039 615.739380,707.272644 
	C609.574707,707.253296 603.408325,707.283386 597.246094,707.143555 
	C592.727783,707.041077 588.924561,708.213013 585.352722,711.262390 
	C578.821289,716.838440 570.342590,716.304443 562.535095,717.072571 
	C553.605835,717.951172 544.559448,717.522766 535.601807,716.377930 
	C530.841248,715.769409 526.664551,713.977905 523.066345,710.743408 
	C517.861145,706.064575 508.625488,705.394836 503.400970,710.030640 
	C498.486786,714.391235 493.012054,716.395874 486.679871,716.800598 
	C473.864960,717.619568 461.058990,718.070862 448.400360,715.283020 
	C446.152222,714.787964 443.474091,714.315186 441.939514,712.845459 
	C435.426819,706.607849 427.507935,706.929077 418.992310,707.262573 
M429.728760,459.215332 
	C430.235748,457.282440 430.589661,455.293427 431.274475,453.425751 
	C435.725525,441.286652 436.656891,428.862183 434.586151,416.143219 
	C432.976074,406.253693 434.272156,396.559967 436.899658,387.005035 
	C437.333466,385.427429 437.367371,383.316101 439.494232,382.870575 
	C440.814514,383.671265 440.666656,384.694550 440.596130,385.689270 
	C439.780426,397.199158 440.944244,408.615448 442.179596,420.032471 
	C443.671326,433.818665 444.111267,447.553314 440.603821,461.174377 
	C439.600342,465.071289 439.743103,469.164337 440.744293,473.075134 
	C446.417084,495.233185 461.413086,508.066284 482.602722,514.611572 
	C483.185211,514.791504 483.871826,514.634338 484.196686,514.634338 
	C485.583069,513.471802 483.985382,511.615936 486.028320,510.831757 
	C489.392334,513.075256 491.598755,516.692383 494.547974,519.545776 
	C500.911926,525.702942 505.138611,526.273682 512.897217,522.108398 
	C514.663940,521.159973 516.272278,519.164490 518.563416,520.326172 
	C519.875793,522.085205 517.505127,523.580627 518.604248,525.302734 
	C526.979492,524.231506 531.891418,517.568054 538.468323,512.722168 
	C539.513428,515.720398 541.393677,515.319153 543.545471,514.521301 
	C551.243652,511.667023 558.775269,508.333679 564.994995,502.962067 
	C579.447510,490.480377 588.128357,475.510162 583.615723,455.498749 
	C582.179993,449.132263 581.385315,442.703644 581.774414,436.184387 
	C582.448181,424.897369 582.859802,413.573792 584.146667,402.353333 
	C584.778076,396.847656 583.910950,391.217590 585.247131,385.234833 
	C588.124573,386.894745 588.376282,389.312073 588.800964,391.458923 
	C590.690430,401.012573 590.796997,410.669128 589.662354,420.294678 
	C589.179626,424.390106 589.168701,428.444580 590.795776,432.069061 
	C595.048706,441.542633 597.304626,451.641785 600.681702,461.378387 
	C601.943787,465.017212 602.432617,469.144165 605.710388,472.512360 
	C607.707031,469.529999 609.353210,466.687988 611.366760,464.135834 
	C617.307983,456.605530 625.588379,452.263306 633.830750,447.824799 
	C645.131409,441.739471 647.020020,437.638275 644.580017,425.187225 
	C644.135986,422.921265 643.169312,420.755127 642.411011,418.554230 
	C641.938904,417.183899 640.878601,415.877472 642.318787,414.048920 
	C645.661316,414.129364 647.190491,417.788727 650.288940,419.104340 
	C649.236877,413.959595 648.509094,412.235504 645.326965,407.929657 
	C631.086548,388.660553 612.734497,373.746643 593.572144,359.814697 
	C587.412354,355.336273 579.923950,353.702728 572.176392,355.021027 
	C568.972290,355.566223 566.386108,354.626617 563.709595,353.006134 
	C549.022461,344.113922 533.433167,337.739624 516.136292,336.103882 
	C509.247406,335.452393 508.105072,333.743195 508.729218,326.620148 
	C508.831879,325.448883 509.708252,324.109833 508.426483,322.841339 
	C504.728943,325.010925 502.154541,328.312805 499.279358,331.278778 
	C498.082001,332.513885 496.822479,333.691254 494.942200,332.927368 
	C493.129913,332.191071 492.954926,330.496765 492.698883,328.797729 
	C492.417236,326.928741 493.321442,324.794983 491.644135,323.177338 
	C491.260010,323.338074 490.866272,323.382721 490.681946,323.602722 
	C490.150208,324.237488 489.640808,324.907593 489.231750,325.625977 
	C482.323975,337.757721 471.674255,345.899048 460.085846,353.061279 
	C457.438019,354.697754 454.707916,355.339874 451.551178,355.103638 
	C441.466034,354.348938 432.468201,357.180054 424.740173,363.822601 
	C418.932831,368.814178 412.889069,373.552185 407.323090,378.798340 
	C397.640045,387.924988 387.597565,396.764709 380.228790,408.041626 
	C379.026581,409.881439 377.393188,411.669647 377.775269,414.182465 
	C381.227478,414.561798 381.719543,410.522766 384.428497,410.181183 
	C385.569275,411.720703 385.151215,413.232178 384.909821,414.673187 
	C382.270874,430.423309 387.565094,442.738464 400.740051,451.763214 
	C409.262268,457.600891 416.448608,464.633820 420.337158,474.507751 
	C420.716003,475.469696 420.883850,476.864258 422.662659,476.918121 
	C426.324707,471.888672 427.316376,465.688629 429.728760,459.215332 
M444.900452,632.820862 
	C446.511658,642.153320 447.758484,651.568542 449.852997,660.791199 
	C451.438660,667.773254 450.694946,673.706848 446.399170,679.592896 
	C442.872345,684.425415 440.090515,689.916809 440.406097,696.217712 
	C440.620697,700.502686 442.086029,704.209961 447.143890,705.621521 
	C449.056519,700.072998 449.256866,693.680054 455.676178,691.015442 
	C457.302551,693.695435 455.716583,694.941040 455.079224,696.356323 
	C453.900970,698.972717 453.076965,701.631042 453.184601,704.548584 
	C453.257874,706.534729 454.075226,707.634888 456.147217,707.790649 
	C458.020721,707.931580 459.479492,707.579773 459.879791,705.454407 
	C460.249451,703.491821 460.399811,701.457520 461.023712,699.580078 
	C462.073059,696.422363 462.833008,692.873535 466.891571,691.955505 
	C468.413269,694.144043 467.040955,695.765259 466.488037,697.393311 
	C465.564117,700.113770 465.110535,702.871887 465.155060,705.731934 
	C465.179657,707.313049 465.483337,708.681335 467.141632,709.410889 
	C472.294647,711.677856 476.539368,709.089233 476.725616,703.429626 
	C476.803864,701.052490 477.288025,698.775269 478.173645,696.631226 
	C478.875916,694.930969 479.298950,692.562378 482.102448,693.142456 
	C482.102448,697.097656 482.166626,700.978149 482.081940,704.855408 
	C482.015259,707.907471 483.476868,708.932556 486.392456,708.863281 
	C494.257568,708.676331 500.452026,701.465576 499.914825,692.763367 
	C499.495880,685.976990 496.503387,680.295593 491.838043,675.480408 
	C489.444550,673.010132 487.699036,670.446045 487.720215,666.751099 
	C487.830048,647.589966 487.756439,628.427673 487.860229,609.266479 
	C487.878754,605.848755 488.062469,602.339111 490.174744,599.284363 
	C492.560333,600.333130 492.710449,602.467407 493.156006,604.334167 
	C494.435394,609.694580 494.820374,615.171875 495.367340,620.648132 
	C496.731567,634.307129 495.112061,647.937378 495.345612,661.581482 
	C495.421234,666.000061 496.585358,669.517029 499.416840,672.946533 
	C504.604431,679.229736 508.170319,686.423462 507.795746,694.813782 
	C507.658203,697.894714 508.549255,699.464783 511.389038,699.386719 
	C514.171997,699.310364 517.816833,699.978516 517.780212,695.219543 
	C517.712952,686.484924 520.929199,678.875916 526.495544,672.377747 
	C529.110352,669.325195 529.815796,666.189575 529.869812,662.359314 
	C530.102295,645.883301 528.721985,629.369690 530.750000,612.937317 
	C531.355591,608.029846 531.731628,602.942261 535.245239,598.116028 
	C536.860596,601.644592 537.191223,604.556396 537.196899,607.538330 
	C537.234680,627.366455 537.228516,647.194885 537.357178,667.022400 
	C537.376953,670.070374 536.557617,672.462585 534.367004,674.602112 
	C530.095093,678.774475 527.453552,683.937439 525.863586,689.654968 
	C523.710144,697.398987 527.651306,704.963806 535.210876,707.635986 
	C541.413086,709.828369 542.877319,708.600891 542.968689,702.067749 
	C543.013306,698.877625 540.671387,695.804871 542.290833,692.488770 
	C544.894287,692.518127 545.542175,694.299194 546.330688,695.939697 
	C547.738342,698.868042 548.114868,701.985046 548.073608,705.185730 
	C548.033264,708.318359 549.640808,709.562988 552.716309,709.707397 
	C559.027222,710.003967 560.457642,708.399475 559.477356,702.151978 
	C558.964172,698.881287 556.779724,695.770630 558.260925,691.561829 
	C563.318176,694.728333 564.212830,699.282959 564.397644,704.153931 
	C564.487671,706.526672 565.363098,707.986511 567.962891,707.896362 
	C569.688110,707.836609 571.482422,707.740662 571.724182,705.520325 
	C572.053833,702.492188 571.576599,699.585632 570.245789,696.777527 
	C569.531982,695.271362 567.671692,693.936096 569.213257,691.442688 
	C576.295288,693.428711 575.232727,700.839600 578.141663,705.404907 
	C582.692749,702.998352 583.534790,701.654236 583.915527,697.231689 
	C584.560669,689.736633 581.066284,683.601807 577.195007,677.776367 
	C574.393677,673.560913 573.709167,669.456177 574.709351,664.572449 
	C576.478210,655.935120 577.927551,647.226501 579.295715,638.514038 
	C583.240173,613.394775 587.884827,588.340454 585.763672,562.684082 
	C584.873779,551.920654 581.870544,541.781006 577.649963,531.939697 
	C577.086853,530.626831 576.473083,529.116272 574.082520,528.789062 
	C563.340210,539.968445 549.666687,547.030273 534.753174,551.801941 
	C530.820251,553.060242 528.629272,554.965576 527.814880,559.179321 
	C526.526855,565.844116 522.608887,570.993835 516.927429,574.721619 
	C513.440674,577.009338 510.018829,576.811218 506.790466,574.133667 
	C501.957001,570.124756 497.766846,565.551514 496.448975,559.227844 
	C495.623047,555.264709 493.468201,553.464844 489.758453,552.228271 
	C475.712738,547.546631 462.667450,541.039246 452.230621,530.155334 
	C451.565308,529.461487 450.877563,528.627136 449.164337,529.071106 
	C442.891052,540.689575 439.694824,553.408752 439.198517,566.921936 
	C438.393585,588.836121 441.526794,610.403076 444.900452,632.820862 
M417.498169,666.000488 
	C420.290466,668.974060 423.833862,671.329834 426.154022,675.041748 
	C424.174377,675.914368 423.332855,675.283630 422.490173,674.794189 
	C415.282104,670.607422 407.660370,671.255188 400.204010,673.484619 
	C391.725159,676.019836 387.579895,686.202271 391.926910,692.697083 
	C396.188354,682.670166 396.188354,682.670166 400.369415,682.362000 
	C399.315308,686.086182 397.791992,689.619263 397.467499,693.445984 
	C397.320190,695.182739 397.218109,697.081055 399.352966,697.466675 
	C402.025970,697.949524 401.565125,695.657471 401.751953,694.120361 
	C402.240662,690.099304 403.367157,686.298828 405.564606,682.868896 
	C406.368561,681.614075 407.184967,680.194275 409.521362,681.602295 
	C408.556549,685.419189 407.460205,689.348022 406.588104,693.326050 
	C405.783844,696.994629 407.017914,699.046814 411.193481,698.937439 
	C417.020233,698.784668 422.855774,698.852966 428.685059,698.961670 
	C431.309723,699.010559 432.616180,698.158020 432.880402,695.335754 
	C433.577209,687.891541 436.202179,681.059448 440.501343,674.972595 
	C442.693115,671.869385 443.231934,668.665405 442.624908,665.055664 
	C439.316833,645.382874 435.371185,625.805054 433.686188,605.888367 
	C433.421417,602.758606 431.950867,601.883301 428.994476,602.800171 
	C416.933746,606.540527 407.799377,613.699707 404.408783,626.148560 
	C400.167236,641.722046 406.179810,654.496460 417.498169,666.000488 
M610.849426,672.027771 
	C606.476501,671.855896 603.083069,675.347473 598.691895,675.660339 
	C598.589783,673.043640 600.471802,672.247192 601.748108,671.053650 
	C604.302368,668.665039 607.046021,666.464661 609.470032,663.953552 
	C622.863403,650.079224 625.617188,632.287048 616.511414,617.351807 
	C611.168579,608.588562 602.818970,604.415649 592.796692,602.252625 
	C592.216736,604.760071 591.639648,606.502441 591.427368,608.288208 
	C589.147949,627.461426 586.053894,646.506958 582.500488,665.479431 
	C581.880249,668.791016 582.507324,671.786316 584.206238,674.579224 
	C588.051086,680.899902 591.195190,687.468262 591.756348,694.991882 
	C591.993774,698.175354 593.775146,699.134705 596.791992,699.043518 
	C602.451965,698.872620 608.122437,698.844055 613.783203,698.979370 
	C617.890808,699.077576 619.194641,697.342407 618.305481,693.437439 
	C617.403259,689.475098 616.701599,685.467041 615.638123,680.094849 
	C623.589294,684.759766 622.114807,692.221375 624.487793,699.187866 
	C631.007507,692.911194 624.983398,687.098145 625.027100,681.368408 
	C631.800049,682.926514 631.264465,689.025146 633.265930,693.569275 
	C637.757935,686.496338 632.864990,675.695007 624.562744,673.631592 
	C620.379456,672.591919 616.132263,671.626587 610.849426,672.027771 
M557.758545,516.376343 
	C556.261597,517.099976 554.800415,517.912231 553.261902,518.532898 
	C543.747803,522.370728 534.146729,525.784851 525.017395,530.771301 
	C515.602539,535.913696 505.004028,533.652039 495.858917,529.020691 
	C490.227448,526.168762 484.789551,523.137695 478.724030,521.289246 
	C473.133453,519.585510 467.941650,516.946655 462.827240,514.139893 
	C461.339539,513.323425 459.918335,511.739685 457.285950,513.195496 
	C459.372070,518.985962 464.053894,522.313538 468.774231,525.499512 
	C473.605072,528.760071 478.760834,531.471985 484.161438,533.702637 
	C489.710693,535.994690 495.745392,536.998230 501.179169,539.310181 
	C506.749512,541.680298 512.389954,540.130066 517.826904,540.692200 
	C533.454346,542.307922 567.046021,521.816467 568.185242,511.537781 
	C564.355652,511.972626 561.730469,514.789917 557.758545,516.376343 
M512.269714,564.695435 
	C514.677307,563.474731 516.623779,560.477600 519.658936,563.111633 
	C524.863770,555.269592 523.624695,551.924072 515.545898,548.700806 
	C511.106049,546.929382 507.512787,549.326843 503.728760,550.214722 
	C500.570892,550.955688 500.210724,558.263123 503.376434,559.411438 
	C506.693665,560.614685 508.255829,563.958557 512.269714,564.695435 
M535.478394,542.359497 
	C533.815552,543.112305 531.555420,543.055481 530.890808,545.760986 
	C534.096802,546.742310 536.278320,545.175964 538.554626,543.878052 
	C538.105469,542.344910 537.072754,542.379211 535.478394,542.359497 
M542.205933,539.574158 
	C541.376709,540.258606 539.746887,541.294006 541.358948,542.049622 
	C543.702454,543.148132 545.335693,541.214294 546.976562,539.582642 
	C545.398926,537.921204 544.077148,538.733337 542.205933,539.574158 
z"/>
<path fill="#ffffff" opacity="1.000000" stroke="none" 
	d="
M528.546265,503.468292 
	C517.756958,516.212341 503.395508,515.398010 494.860779,501.635498 
	C492.814575,498.335938 490.862793,497.140991 486.826416,497.814941 
	C474.451965,499.881042 462.381775,490.988892 460.410583,478.909485 
	C459.957642,476.133972 459.609619,473.093933 462.925415,472.264618 
	C466.244781,471.434418 466.735382,474.456726 467.475952,476.907654 
	C471.354828,489.745026 482.101227,494.248444 494.154541,488.171997 
	C499.496063,485.479156 503.603027,481.480377 506.943848,476.552673 
	C509.071259,473.414764 508.831268,471.329712 505.300323,469.360748 
	C497.946045,465.259735 492.555817,459.242432 489.418121,451.371429 
	C487.175903,445.746674 488.246094,442.026031 493.657043,439.272705 
	C506.309204,432.834808 519.202332,432.387726 531.918335,439.163696 
	C537.034973,441.890167 538.162598,445.524414 536.068970,450.900635 
	C532.984802,458.820312 527.528625,464.792969 520.215637,468.917328 
	C516.336792,471.104950 515.936523,473.316223 518.378723,476.868103 
	C522.871765,483.402802 528.305481,488.427185 536.343262,490.184998 
	C546.217468,492.344421 554.401062,487.698914 557.276367,478.080322 
	C557.466858,477.443176 557.615295,476.792725 557.763977,476.144043 
	C558.283020,473.878662 559.230774,471.684509 561.946594,472.188873 
	C564.792480,472.717377 565.241516,475.223022 564.926636,477.702362 
	C564.230164,483.187073 561.991882,487.985382 557.704285,491.543182 
	C551.526184,496.669617 544.352600,499.229584 536.375793,497.622528 
	C531.264160,496.592651 530.801758,500.678131 528.546265,503.468292 
M500.465240,499.750366 
	C502.423279,502.769470 504.677490,499.274323 506.714539,499.997894 
	C510.930420,506.719879 511.274475,507.001923 514.464905,506.370514 
	C519.094238,505.454346 525.841125,500.129242 525.502441,496.657166 
	C524.953491,491.029785 518.911682,490.087250 515.715332,485.803192 
	C513.840149,497.702576 513.840149,497.702576 510.783264,498.722076 
	C508.684875,495.549591 511.122833,491.152954 508.242310,487.945648 
	C505.869537,489.641388 503.818665,491.320404 501.567261,492.663177 
	C498.630127,494.414978 498.189209,496.508942 500.465240,499.750366 
M519.704651,442.450989 
	C513.694519,442.151031 507.618164,441.319092 502.002411,444.411743 
	C506.015930,445.034790 509.979462,444.978577 513.940674,445.050323 
	C518.028931,445.124329 522.126526,444.688202 527.031311,445.691467 
	C525.916992,444.867706 525.585022,444.500214 525.172485,444.339081 
	C523.631104,443.737061 522.063293,443.202667 519.704651,442.450989 
z"/>
<path fill="#ffffff" opacity="1.000000" stroke="none" 
	d="
M472.406647,403.864685 
	C484.698883,408.805145 488.036530,418.907318 480.755707,427.962250 
	C474.291809,436.001190 462.315613,434.687561 457.723785,425.405273 
	C456.924591,423.789703 456.344879,422.065582 455.729218,420.552429 
	C453.687561,419.629089 452.707336,422.182373 450.955963,421.590759 
	C449.905457,412.491272 460.681030,403.380615 472.406647,403.864685 
z"/>
<path fill="#ffffff" opacity="1.000000" stroke="none" 
	d="
M540.716187,423.773438 
	C536.896729,413.928040 545.338501,404.672821 551.680969,403.763123 
	C562.090332,402.270081 572.229736,410.073059 573.453125,420.829620 
	C571.268738,421.920990 570.512024,418.974548 568.144043,419.165527 
	C565.316162,425.900665 562.760803,433.565552 552.952515,433.172424 
	C546.827881,432.926910 543.394409,429.162750 540.716187,423.773438 
M555.144104,415.588867 
	C555.338745,417.723480 556.388855,418.981445 558.647278,418.690430 
	C560.277039,418.480377 561.324646,417.429108 561.497864,415.779602 
	C561.659485,414.240112 560.624451,413.356201 559.339478,412.854004 
	C557.291809,412.053802 555.825073,412.638397 555.144104,415.588867 
z"/>
<path fill="#ffffff" opacity="1.000000" stroke="none" 
	d="
M450.130310,394.442566 
	C447.767853,394.983459 448.683563,393.503174 449.085358,392.919159 
	C454.645752,384.837219 460.916687,377.607483 471.183807,375.494415 
	C473.196594,375.080139 475.173645,374.989227 476.489563,377.425873 
	C475.166840,379.788849 472.528687,379.401062 470.494934,380.103851 
	C467.634064,381.092438 465.352631,382.042755 467.755402,385.641022 
	C469.264740,387.901337 468.227325,389.356201 465.850281,390.144348 
	C464.748383,390.509735 463.654510,390.922211 462.602631,391.411377 
	C458.709930,393.221588 455.419006,397.537720 450.130310,394.442566 
z"/>
<path fill="#ffffff" opacity="1.000000" stroke="none" 
	d="
M557.217041,386.735413 
	C564.548462,386.272858 568.563049,389.150421 569.539368,395.832550 
	C564.876038,393.611359 560.454895,391.674805 556.220032,389.392365 
	C554.826416,388.641235 555.600586,387.431122 557.217041,386.735413 
z"/>
</svg>